<svg id="Layer_1" data-name="Layer 1" xmlns="http://www.w3.org/2000/svg" xmlns:xlink="http://www.w3.org/1999/xlink" viewBox="0 0 143.37 16.95"><defs><style>.cls-1{fill:none;}.cls-2{clip-path:url(#clip-path);}.cls-3{fill:#0a0f8f;}</style><clipPath id="clip-path" transform="translate(6.84 34.84)"><rect class="cls-1" x="-6.84" y="-39.93" width="143" height="28"/></clipPath></defs><g class="cls-2"><path class="cls-3" d="M6.17-27.57a31.46,31.46,0,0,1,3-2.42,7.88,7.88,0,0,1,4.35-1.6,5.72,5.72,0,0,1,5.69,5.66,5.72,5.72,0,0,1-5.69,5.67,7.81,7.81,0,0,1-4.35-1.61,29.85,29.85,0,0,1-3-2.41,29.85,29.85,0,0,1-3,2.41,7.81,7.81,0,0,1-4.35,1.61,5.72,5.72,0,0,1-5.69-5.67,5.72,5.72,0,0,1,5.69-5.66A7.88,7.88,0,0,1,3.2-30,31.46,31.46,0,0,1,6.17-27.57ZM8-25.93a24.46,24.46,0,0,0,2.54,2.06,5.51,5.51,0,0,0,3,1.18,3.29,3.29,0,0,0,3.25-3.24,3.29,3.29,0,0,0-3.25-3.23,5.48,5.48,0,0,0-3,1.17A25.84,25.84,0,0,0,8-25.93Zm-9.13-3.23A3.29,3.29,0,0,0-4.4-25.93a3.29,3.29,0,0,0,3.25,3.24,5.51,5.51,0,0,0,3-1.18,24.46,24.46,0,0,0,2.54-2.06A25.84,25.84,0,0,0,1.82-28,5.48,5.48,0,0,0-1.15-29.16Z" transform="translate(6.84 34.84)"/><path class="cls-3" d="M30-32.26H27.18v-2.58H30Zm0,14.34H27.18V-29.81H30Zm15.91,0H43.09v-6.6a2.44,2.44,0,0,0-.2-1,2.33,2.33,0,0,0-.52-.77,2.25,2.25,0,0,0-.78-.49,2.67,2.67,0,0,0-1-.17h-5v9H32.78V-28.39a1.38,1.38,0,0,1,.11-.55,1.21,1.21,0,0,1,.31-.45,1.21,1.21,0,0,1,.46-.31,1.33,1.33,0,0,1,.56-.11h6.44a5.72,5.72,0,0,1,1.13.12A5.34,5.34,0,0,1,43-29.3a5.45,5.45,0,0,1,1.12.69,4.09,4.09,0,0,1,.94,1,4.72,4.72,0,0,1,.66,1.35,5.81,5.81,0,0,1,.24,1.74Zm13-9h-5v9H51v-9H47.31v-2.86H51V-33.7h2.89v3.89h5Zm13.46,5.09a4.44,4.44,0,0,1-.21,1.29,4,4,0,0,1-.68,1.28,3.88,3.88,0,0,1-1.22,1,3.93,3.93,0,0,1-1.83.39H63.27A4.5,4.5,0,0,1,62-18.13a4,4,0,0,1-1.27-.67,3.88,3.88,0,0,1-1-1.22,4,4,0,0,1-.39-1.84,4.43,4.43,0,0,1,.21-1.28,3.58,3.58,0,0,1,.67-1.28,3.64,3.64,0,0,1,1.22-1,3.81,3.81,0,0,1,1.83-.4h5.15v2.73H63.27a1.13,1.13,0,0,0-.9.36,1.3,1.3,0,0,0-.32.89,1.13,1.13,0,0,0,.36.88,1.38,1.38,0,0,0,.88.3h5.13a1.13,1.13,0,0,0,.9-.35,1.23,1.23,0,0,0,.32-.88v-4a1.13,1.13,0,0,0-.35-.89,1.21,1.21,0,0,0-.87-.33H62.15v-2.72h6.27a4.38,4.38,0,0,1,1.28.21,3.64,3.64,0,0,1,1.27.68,3.55,3.55,0,0,1,1,1.22,3.93,3.93,0,0,1,.4,1.83Zm12.83-5.09H78.76a1.19,1.19,0,0,0-.88.3,1.14,1.14,0,0,0-.29.84v7.89H74.73v-7.89a4.17,4.17,0,0,1,.19-1.32,3.72,3.72,0,0,1,.49-1,3.31,3.31,0,0,1,.73-.76,4.16,4.16,0,0,1,.84-.52,3.89,3.89,0,0,1,.9-.28,3.92,3.92,0,0,1,.86-.1h6.45Zm16.06-2.86a30.64,30.64,0,0,1-1.13,3A21.26,21.26,0,0,1,98.63-24a18.17,18.17,0,0,1-1.88,2.46,12.57,12.57,0,0,1-2.3,1.95,11.19,11.19,0,0,1-2.73,1.28,10.62,10.62,0,0,1-3.2.46A1.3,1.3,0,0,1,88-18a1.44,1.44,0,0,1-.46-.29,1.39,1.39,0,0,1-.31-.45,1.55,1.55,0,0,1-.11-.56v-10.5h2.86v8.94a4.67,4.67,0,0,0,2-.45,7.7,7.7,0,0,0,1.82-1.19,11.09,11.09,0,0,0,1.58-1.69,16.94,16.94,0,0,0,1.31-1.94,18.7,18.7,0,0,0,1-2,12.25,12.25,0,0,0,.6-1.71Zm16.81,11.89h-2.85v-3.87h-10v3.87h-2.85v-7.89A8.45,8.45,0,0,1,102.9-29a7.57,7.57,0,0,1,1.65-2.5A7.4,7.4,0,0,1,107-33.11a8.29,8.29,0,0,1,3.15-.59h6.43a1.47,1.47,0,0,1,.56.11,1.67,1.67,0,0,1,.47.31,1.41,1.41,0,0,1,.3.46,1.36,1.36,0,0,1,.11.56Zm-12.9-6.73h10v-6.19h-5l-.56.05a5.28,5.28,0,0,0-1,.18,6.16,6.16,0,0,0-1.17.48,4,4,0,0,0-1.13.88,4.62,4.62,0,0,0-.86,1.41,5.5,5.5,0,0,0-.33,2Zm31.37,2.09a4.92,4.92,0,0,1-.22,1.53,4.35,4.35,0,0,1-.56,1.19,3.83,3.83,0,0,1-.82.88,5,5,0,0,1-1,.59,4.44,4.44,0,0,1-1,.34,4.33,4.33,0,0,1-1,.11h-11v-2.86h11a1.69,1.69,0,0,0,1.28-.48,1.86,1.86,0,0,0,.46-1.3,2.11,2.11,0,0,0-.12-.73,1.54,1.54,0,0,0-.36-.57,1.34,1.34,0,0,0-.55-.37,1.8,1.8,0,0,0-.71-.14h-6.57a5.19,5.19,0,0,1-1.49-.24,4.54,4.54,0,0,1-1.5-.8,4.61,4.61,0,0,1-1.14-1.44,4.81,4.81,0,0,1-.45-2.18,4.74,4.74,0,0,1,.45-2.17,4.61,4.61,0,0,1,1.14-1.44,4.2,4.2,0,0,1,1.5-.8,4.92,4.92,0,0,1,1.49-.26h9.72v2.86h-9.72a1.64,1.64,0,0,0-1.27.5,1.88,1.88,0,0,0-.45,1.31,1.86,1.86,0,0,0,.45,1.31,1.7,1.7,0,0,0,1.27.47H132a5,5,0,0,1,1,.13,4.44,4.44,0,0,1,1,.36,4.57,4.57,0,0,1,1,.61,3.79,3.79,0,0,1,.81.88,4.1,4.1,0,0,1,.57,1.19A5.08,5.08,0,0,1,136.53-22.56Z" transform="translate(6.84 34.84)"/></g></svg>