<svg id="Layer_1" data-name="Layer 1" xmlns="http://www.w3.org/2000/svg" xmlns:xlink="http://www.w3.org/1999/xlink" viewBox="0 0 229.7 27.15"><defs><style>.cls-1{fill:none;}.cls-2{clip-path:url(#clip-path);}.cls-3{fill:#fff;}</style><clipPath id="clip-path" transform="translate(146.56 106.27)"><rect class="cls-1" x="-146.56" y="-114.41" width="229.11" height="44.86"/></clipPath></defs><g class="cls-2"><path class="cls-3" d="M-125.72-94.61A46.55,46.55,0,0,1-121-98.48a12.61,12.61,0,0,1,7-2.57A9.16,9.16,0,0,1-104.88-92,9.16,9.16,0,0,1-114-82.91a12.61,12.61,0,0,1-7-2.57,49.39,49.39,0,0,1-4.75-3.87,48.3,48.3,0,0,1-4.76,3.87,12.55,12.55,0,0,1-7,2.57A9.16,9.16,0,0,1-146.56-92a9.16,9.16,0,0,1,9.12-9.07,12.55,12.55,0,0,1,7,2.57A45.58,45.58,0,0,1-125.72-94.61Zm2.9,2.63a41.58,41.58,0,0,0,4.07,3.3A8.8,8.8,0,0,0-114-86.8,5.26,5.26,0,0,0-108.79-92,5.26,5.26,0,0,0-114-97.17a8.86,8.86,0,0,0-4.75,1.89A41.58,41.58,0,0,0-122.82-92Zm-14.62-5.19A5.27,5.27,0,0,0-142.66-92a5.27,5.27,0,0,0,5.22,5.18,8.83,8.83,0,0,0,4.75-1.88,41.58,41.58,0,0,0,4.07-3.3,41.58,41.58,0,0,0-4.07-3.3A8.86,8.86,0,0,0-137.44-97.17Z" transform="translate(146.56 106.27)"/><path class="cls-3" d="M-87.49-102.12h-4.58v-4.15h4.58Zm0,23h-4.58V-98.21h4.58Zm25.49,0h-4.58V-89.73a3.87,3.87,0,0,0-.31-1.6,3.7,3.7,0,0,0-.83-1.24A3.41,3.41,0,0,0-69-93.34a4,4,0,0,0-1.53-.28h-8v14.47h-4.58V-95.93a2.18,2.18,0,0,1,.18-.89,2.14,2.14,0,0,1,.49-.72,2.33,2.33,0,0,1,.74-.49,2.26,2.26,0,0,1,.9-.18h10.31a9.12,9.12,0,0,1,1.82.2,8,8,0,0,1,1.9.63A8.49,8.49,0,0,1-65-96.29a6.88,6.88,0,0,1,1.52,1.61,7.42,7.42,0,0,1,1,2.17A9.2,9.2,0,0,1-62-89.73Zm20.76-14.47h-8v14.47h-4.63V-93.62h-6v-4.59h6v-6.22h4.63v6.22h8Zm21.56,8.16A7.28,7.28,0,0,1-20-83.4a6.29,6.29,0,0,1-1.1,2.05,6,6,0,0,1-1.95,1.57,6.21,6.21,0,0,1-2.92.63h-8.26a7.28,7.28,0,0,1-2.06-.33,6.47,6.47,0,0,1-2-1.08,6.43,6.43,0,0,1-1.57-2,6.32,6.32,0,0,1-.63-2.94,7.22,7.22,0,0,1,.33-2.06,6.31,6.31,0,0,1,1.08-2,6.18,6.18,0,0,1,2-1.59,6.32,6.32,0,0,1,2.94-.63H-26v4.37h-8.26a1.84,1.84,0,0,0-1.44.58,2,2,0,0,0-.51,1.41A1.77,1.77,0,0,0-35.61-84a2.15,2.15,0,0,0,1.41.5H-26a1.83,1.83,0,0,0,1.44-.57A2,2,0,0,0-24-85.5v-6.4a1.86,1.86,0,0,0-.56-1.42A1.9,1.9,0,0,0-26-93.85H-36v-4.36H-26a6.8,6.8,0,0,1,2,.34,5.77,5.77,0,0,1,2,1.09,5.88,5.88,0,0,1,1.59,2,6.21,6.21,0,0,1,.63,2.92ZM.88-93.62H-9.42a1.91,1.91,0,0,0-1.41.47,1.84,1.84,0,0,0-.47,1.36v12.64h-4.58V-91.79a7,7,0,0,1,.3-2.12,6.09,6.09,0,0,1,.79-1.64,5.39,5.39,0,0,1,1.17-1.21,6.38,6.38,0,0,1,1.35-.83A6.68,6.68,0,0,1-10.83-98a6.43,6.43,0,0,1,1.38-.16H.88Zm25.74-4.59a46.58,46.58,0,0,1-1.82,4.76A33.63,33.63,0,0,1,22.41-89a27.63,27.63,0,0,1-3,3.93,19.2,19.2,0,0,1-3.68,3.12,18.36,18.36,0,0,1-4.38,2.07,17.19,17.19,0,0,1-5.13.74,2.25,2.25,0,0,1-.89-.18,2.48,2.48,0,0,1-.74-.48,2.39,2.39,0,0,1-.5-.72,2.44,2.44,0,0,1-.17-.9V-98.21H8.49v14.34a7.45,7.45,0,0,0,3.2-.73,12.5,12.5,0,0,0,2.92-1.9,18.84,18.84,0,0,0,2.54-2.72,27.61,27.61,0,0,0,2.09-3.1,27.58,27.58,0,0,0,1.55-3.14,20.52,20.52,0,0,0,1-2.75ZM53.55-79.15H49v-6.21H32.88v6.21H28.31V-91.79a13.27,13.27,0,0,1,1-5.1,11.82,11.82,0,0,1,2.64-4,12.06,12.06,0,0,1,4-2.61,13.37,13.37,0,0,1,5-.93H51.24a2.44,2.44,0,0,1,.9.17,2.36,2.36,0,0,1,.74.5,2.17,2.17,0,0,1,.49.74,2.26,2.26,0,0,1,.18.9ZM32.88-89.94H49v-9.91h-8c-.14,0-.44,0-.9.07a9.64,9.64,0,0,0-1.57.3,10.58,10.58,0,0,0-1.86.76,6.48,6.48,0,0,0-1.81,1.41A7.27,7.27,0,0,0,33.41-95a8.94,8.94,0,0,0-.53,3.26Zm50.26,3.35a8.1,8.1,0,0,1-.35,2.45,7,7,0,0,1-.9,1.91,5.92,5.92,0,0,1-1.32,1.41,8.53,8.53,0,0,1-1.57.95,7.77,7.77,0,0,1-1.65.54,7.35,7.35,0,0,1-1.57.18H58.13v-4.58H75.78a2.68,2.68,0,0,0,2-.78,2.9,2.9,0,0,0,.73-2.08,3.32,3.32,0,0,0-.19-1.16,2.68,2.68,0,0,0-.56-.92,2.38,2.38,0,0,0-.88-.6,3,3,0,0,0-1.15-.21H65.26a8.33,8.33,0,0,1-2.4-.39,7.43,7.43,0,0,1-2.39-1.29,6.9,6.9,0,0,1-1.83-2.31A7.67,7.67,0,0,1,57.92-97a7.58,7.58,0,0,1,.72-3.47,7.1,7.1,0,0,1,1.83-2.31A7.06,7.06,0,0,1,62.86-104a8,8,0,0,1,2.4-.4H80.83v4.58H65.26a2.68,2.68,0,0,0-2.05.8A3,3,0,0,0,62.49-97a3,3,0,0,0,.72,2.1,2.73,2.73,0,0,0,2.05.76H75.82a7.46,7.46,0,0,1,1.56.21,7.26,7.26,0,0,1,1.64.57,7.21,7.21,0,0,1,1.57,1,6.27,6.27,0,0,1,1.3,1.41A7,7,0,0,1,82.81-89,8.26,8.26,0,0,1,83.14-86.59Z" transform="translate(146.56 106.27)"/></g></svg>