<svg id="Layer_1" data-name="Layer 1" xmlns="http://www.w3.org/2000/svg" viewBox="0 0 27 12"><defs><style>.cls-1{fill:#0a0f8f;}</style></defs><path class="cls-1" d="M13.5,4.36a28.62,28.62,0,0,1,3-2.42A7.8,7.8,0,0,1,20.82.34,5.71,5.71,0,0,1,26.51,6a5.71,5.71,0,0,1-5.69,5.66,7.88,7.88,0,0,1-4.35-1.6,28.62,28.62,0,0,1-3-2.42,28.62,28.62,0,0,1-3,2.42,7.88,7.88,0,0,1-4.35,1.6A5.71,5.71,0,0,1,.49,6,5.71,5.71,0,0,1,6.18.34a7.8,7.8,0,0,1,4.35,1.6A28.62,28.62,0,0,1,13.5,4.36ZM15.31,6a25.84,25.84,0,0,0,2.54,2.06,5.51,5.51,0,0,0,3,1.18A3.29,3.29,0,0,0,24.07,6a3.29,3.29,0,0,0-3.25-3.24,5.51,5.51,0,0,0-3,1.18A25.84,25.84,0,0,0,15.31,6ZM6.18,2.76A3.29,3.29,0,0,0,2.93,6,3.29,3.29,0,0,0,6.18,9.24a5.51,5.51,0,0,0,3-1.18A25.84,25.84,0,0,0,11.69,6,25.84,25.84,0,0,0,9.15,3.94,5.51,5.51,0,0,0,6.18,2.76Z"/></svg>